<svg width="1896" height="61" viewBox="0 0 1896 61" fill="#432452" xmlns="http://www.w3.org/2000/svg">
<g clip-path="url(#clip0)">
<path fill-rule="evenodd" clip-rule="evenodd" d="M0 51.0038H79C158 51.0038 316 51.0038 474 38.1464C632 25.7323 790 0.460815 948 0.460815C1106 0.460815 1264 25.7323 1422 38.1464C1580 51.0038 1738 51.0038 1817 51.0038H1896V227.461H1817C1738 227.461 1580 227.461 1422 227.461C1264 227.461 1106 227.461 948 227.461C790 227.461 632 227.461 474 227.461C316 227.461 158 227.461 79 227.461H0V51.0038Z" />
</g>
<defs>
<clipPath id="clip0">
<rect width="1896" height="61" fill="white"/>
</clipPath>
</defs>
</svg>
